<?xml version="1.0" encoding="UTF-8"?>
<svg version="1.1" xmlns="http://www.w3.org/2000/svg" width="512" height="512">
<path d="M0 0 C1.01790619 0.00215515 2.03581238 0.0043103 3.08456421 0.00653076 C17.69363523 0.05620146 32.02575853 0.30709809 46.375 3.3125 C47.34985352 3.51117676 48.32470703 3.70985352 49.32910156 3.91455078 C97.7109774 14.03517194 141.69928269 35.9516877 177.375 70.3125 C178.3640332 71.26068604 178.3640332 71.26068604 179.37304688 72.22802734 C188.86130305 81.37247479 197.6012044 90.66984009 205.375 101.3125 C206.23306152 102.46355017 207.09113451 103.61459177 207.94921875 104.765625 C213.98736829 112.95680614 219.34595521 121.47054105 224.375 130.3125 C224.73948242 130.94430176 225.10396484 131.57610352 225.47949219 132.22705078 C247.08534998 169.97532572 256.85198095 212.74189997 256.6875 255.9375 C256.68534485 256.95540619 256.6831897 257.97331238 256.68096924 259.02206421 C256.63129854 273.63113523 256.38040191 287.96325853 253.375 302.3125 C253.07698486 303.77478027 253.07698486 303.77478027 252.77294922 305.26660156 C242.65232806 353.6484774 220.7358123 397.63678269 186.375 433.3125 C185.74287598 433.97185547 185.11075195 434.63121094 184.45947266 435.31054688 C175.31502521 444.79880305 166.01765991 453.5387044 155.375 461.3125 C154.22394983 462.17056152 153.07290823 463.02863451 151.921875 463.88671875 C143.73224019 469.92427396 135.22961724 475.30707302 126.375 480.3125 C125.66778809 480.7146875 124.96057617 481.116875 124.23193359 481.53125 C101.09654164 494.5566741 75.92537591 503.30551461 49.9375 508.625 C49.21860596 508.77235596 48.49971191 508.91971191 47.7590332 509.0715332 C33.08339502 511.86090125 18.55831162 512.66142619 3.64770508 512.62817383 C0.70811513 512.6250221 -2.2304558 512.64854926 -5.16992188 512.67382812 C-18.54306192 512.71848737 -31.43916711 511.51301542 -44.625 509.3125 C-46.33055054 509.03031616 -46.33055054 509.03031616 -48.07055664 508.74243164 C-91.33802759 500.97044532 -132.38793216 480.98345309 -165.625 452.3125 C-166.37007813 451.67828125 -167.11515625 451.0440625 -167.8828125 450.390625 C-181.38779833 438.57948485 -194.05918743 425.82889772 -204.625 411.3125 C-205.48149066 410.16255169 -206.33826433 409.01281411 -207.1953125 407.86328125 C-213.23534209 399.67315742 -218.61867614 391.16870382 -223.625 382.3125 C-224.0271875 381.60528809 -224.429375 380.89807617 -224.84375 380.16943359 C-237.8691741 357.03404164 -246.61801461 331.86287591 -251.9375 305.875 C-252.08485596 305.15610596 -252.23221191 304.43721191 -252.3840332 303.6965332 C-255.35789088 288.05024391 -255.99800362 272.57681954 -255.9375 256.6875 C-255.93534485 255.66959381 -255.9331897 254.65168762 -255.93096924 253.60293579 C-255.88129854 238.99386477 -255.63040191 224.66174147 -252.625 210.3125 C-252.42632324 209.33764648 -252.22764648 208.36279297 -252.02294922 207.35839844 C-241.90232806 158.9765226 -219.9858123 114.98821731 -185.625 79.3125 C-184.99287598 78.65314453 -184.36075195 77.99378906 -183.70947266 77.31445312 C-174.56502521 67.82619695 -165.26765991 59.0862956 -154.625 51.3125 C-153.47394983 50.45443848 -152.32290823 49.59636549 -151.171875 48.73828125 C-142.98224019 42.70072604 -134.47961724 37.31792698 -125.625 32.3125 C-124.91778809 31.9103125 -124.21057617 31.508125 -123.48193359 31.09375 C-100.34654164 18.0683259 -75.17537591 9.31948539 -49.1875 4 C-48.46860596 3.85264404 -47.74971191 3.70528809 -47.0090332 3.5534668 C-31.36274391 0.57960912 -15.88931954 -0.06050362 0 0 Z M-127.875 137.875 C-133.48665627 143.84014643 -135.75841488 150.76430412 -136.125 158.875 C-135.79062438 166.68824376 -132.94311064 173.95218702 -127.59375 179.7109375 C-119.43853506 186.34514013 -110.01097157 189.01760266 -99.625 188.3125 C-91.62630912 187.43018509 -84.45016507 184.20195355 -78.765625 178.421875 C-73.06432327 171.25291144 -71.01940363 164.48896917 -71.2734375 155.34375 C-72.14463015 147.8321334 -75.250123 141.5652207 -80.625 136.3125 C-95.06945224 125.57635434 -114.30991629 125.68138615 -127.875 137.875 Z M24.5625 225.8125 C21.20340113 229.18995461 19.10845787 232.2123132 16.375 236.3125 C16.045 228.7225 15.715 221.1325 15.375 213.3125 C-3.435 213.3125 -22.245 213.3125 -41.625 213.3125 C-41.625 270.4025 -41.625 327.4925 -41.625 386.3125 C-22.815 386.3125 -4.005 386.3125 15.375 386.3125 C15.41238281 378.6090625 15.44976562 370.905625 15.48828125 362.96875 C15.51856353 358.08331112 15.54971319 353.19790855 15.58398438 348.3125 C15.63827717 340.56121665 15.68938875 332.81000515 15.72143555 325.05859375 C15.74747864 318.80799024 15.7878889 312.55762843 15.83818626 306.30717468 C15.85484803 303.92464712 15.86636659 301.54207776 15.87261391 299.15950012 C15.88226216 295.8176653 15.91033153 292.47644788 15.94262695 289.13476562 C15.94119186 288.15364807 15.93975677 287.17253052 15.9382782 286.16168213 C16.07628686 276.03816472 19.35605634 268.66835296 26.375 261.3125 C33.3387496 255.57437033 40.97218264 253.84440939 49.859375 254.0625 C56.68126996 254.74045229 63.57925876 257.27756967 68.375 262.3125 C75.52001506 273.47540151 76.49641885 285.44310934 76.58032227 298.33032227 C76.59022186 299.28748642 76.60012146 300.24465057 76.61032104 301.2308197 C76.64165938 304.36349091 76.66658292 307.49617723 76.69140625 310.62890625 C76.71199973 312.81323112 76.7329968 314.99755222 76.75437927 317.18186951 C76.80935282 322.90773448 76.85887027 328.63363393 76.90722656 334.35955811 C76.96649665 341.24217721 77.03258753 348.12473383 77.09752655 355.00730133 C77.19522469 365.44232912 77.28429355 375.87739854 77.375 386.3125 C96.185 386.3125 114.995 386.3125 134.375 386.3125 C134.43328724 368.08984985 134.43328724 368.08984985 134.47265625 349.8671875 C134.48455622 342.42184556 134.49854856 334.97655338 134.52587891 327.53125 C134.5478017 321.52062819 134.55960911 315.51005983 134.56475449 309.49940109 C134.56841568 307.21999649 134.57556366 304.94059442 134.58646011 302.66121292 C134.87663591 278.22571818 134.87663591 278.22571818 130.125 254.375 C129.79967285 253.32965088 129.79967285 253.32965088 129.46777344 252.26318359 C123.92213964 235.2121346 113.15125593 223.02669921 97.5 214.5625 C73.19777134 203.07279936 43.83147059 207.1084178 24.5625 225.8125 Z M-132.625 212.3125 C-132.625 269.7325 -132.625 327.1525 -132.625 386.3125 C-113.815 386.3125 -95.005 386.3125 -75.625 386.3125 C-75.625 328.8925 -75.625 271.4725 -75.625 212.3125 C-94.435 212.3125 -113.245 212.3125 -132.625 212.3125 Z " fill="#000000" transform="translate(255.625,-0.3125)"/>
</svg>
