<?xml version="1.0" encoding="UTF-8"?>
<svg version="1.1" xmlns="http://www.w3.org/2000/svg" width="1000" height="1000">
<path d="M0 0 C1.23512329 0.00182281 2.47024658 0.00364563 3.74279785 0.00552368 C21.48683225 0.04962091 38.83651416 0.42479389 56.375 3.3125 C57.51066406 3.48942383 58.64632813 3.66634766 59.81640625 3.84863281 C96.14899962 9.57131278 131.98658895 19.75039487 165.375 35.3125 C167.10534086 36.09793806 168.83581319 36.88308653 170.56640625 37.66796875 C196.48107076 49.56760832 220.94277203 64.70336289 243.375 82.3125 C244.49535257 83.16763859 245.61649248 84.02174632 246.73828125 84.875 C254.00879317 90.44579493 260.83583473 96.33980913 267.5 102.62109375 C269.70932177 104.68933111 271.93755078 106.67636283 274.25 108.625 C283.61385577 116.7310244 292.44432736 125.80655676 300.375 135.3125 C301.56222656 136.68341797 301.56222656 136.68341797 302.7734375 138.08203125 C319.67147708 157.64232372 334.62292157 178.82228594 347.375 201.3125 C347.85791504 202.16086426 348.34083008 203.00922852 348.83837891 203.88330078 C376.40565608 252.64965298 392.93837812 306.58837385 398.375 362.3125 C398.5153064 363.64015381 398.5153064 363.64015381 398.65844727 364.99462891 C401.66574134 397.44958479 400.58758741 431.1483697 395.375 463.3125 C395.18776367 464.48119629 395.00052734 465.64989258 394.80761719 466.85400391 C389.14248422 501.0747337 378.96812607 534.30107647 364.51269531 565.82275391 C363.47403292 568.09577518 362.46339989 570.3788189 361.4609375 572.66796875 C355.77692493 585.4380705 348.59495364 597.36354698 341.375 609.3125 C340.84825684 610.18793457 340.32151367 611.06336914 339.77880859 611.96533203 C333.07823537 623.03950116 325.76987153 633.43114372 317.74072266 643.58105469 C316.05173172 645.72233529 314.40266978 647.8931244 312.75 650.0625 C298.06764779 668.79145172 281.59276373 686.96082207 263.375 702.3125 C262.44558594 703.11945312 261.51617188 703.92640625 260.55859375 704.7578125 C198.21882117 758.65136216 119.99020862 790.64124205 38.375 799.3125 C37.57426056 799.39838379 36.77352112 799.48426758 35.94851685 799.57275391 C29.05148196 800.26288254 22.21800231 800.48673401 15.2890625 800.515625 C14.16195862 800.52263931 13.03485474 800.52965363 11.87359619 800.53688049 C8.24902315 800.55431441 4.62461345 800.56073435 1 800.5625 C-0.85646149 800.56351212 -0.85646149 800.56351212 -2.75042725 800.56454468 C-20.92046383 800.54878461 -38.64503617 800.11546014 -56.625 797.3125 C-58.37079346 797.05509033 -58.37079346 797.05509033 -60.15185547 796.79248047 C-97.12053595 791.26865173 -132.7130918 781.03625315 -166.625 765.3125 C-168.38406833 764.51422098 -170.14318259 763.71604316 -171.90234375 762.91796875 C-199.34665228 750.31382108 -225.14323478 734.32154804 -248.625 715.3125 C-249.56988281 714.55839844 -250.51476562 713.80429687 -251.48828125 713.02734375 C-256.82279433 708.72579309 -261.98535996 704.27203083 -267.04296875 699.6484375 C-269.11713156 697.77196343 -271.21678286 695.94181735 -273.3359375 694.1171875 C-278.10107212 689.9544515 -282.59164206 685.5373922 -287.0625 681.0625 C-287.90216309 680.22275635 -288.74182617 679.3830127 -289.60693359 678.51782227 C-294.63653753 673.44167514 -299.35772494 668.32578222 -303.74609375 662.68359375 C-305.65988613 660.2684753 -307.70027447 658.05506249 -309.8125 655.8125 C-367.27215644 592.37783596 -399.55079701 499.63085076 -400.51501465 369.74261475 C-400.04998772 360.86293732 -399.02128732 352.09208225 -397.625 343.3125 C-397.45339355 342.18247559 -397.28178711 341.05245117 -397.10498047 339.88818359 C-391.45009577 303.32599343 -381.07971563 267.92927909 -365.625 234.3125 C-365.22909668 233.42933105 -364.83319336 232.54616211 -364.42529297 231.63623047 C-354.41789554 209.3507835 -342.06222638 188.03189309 -327.625 168.3125 C-327.13547852 167.64186523 -326.64595703 166.97123047 -326.14160156 166.28027344 C-317.87731558 155.00793409 -309.27685934 144.09001076 -299.8515625 133.7578125 C-298.41620759 132.18144026 -296.9932661 130.59363039 -295.5859375 128.9921875 C-286.30580268 118.46079855 -276.37524293 108.34749081 -265.625 99.3125 C-264.67238281 98.47074219 -263.71976563 97.62898438 -262.73828125 96.76171875 C-207.24526595 47.87541003 -137.45144719 16.43236599 -64.6875 4.5 C-62.91548218 4.20778564 -62.91548218 4.20778564 -61.10766602 3.90966797 C-40.77244724 0.75508951 -20.55795626 -0.06305804 0 0 Z M-185.625 226.3125 C-181.49039366 230.46807322 -181.49039366 230.46807322 -177.12890625 234.2578125 C-176.49533203 234.77150391 -175.86175781 235.28519531 -175.20898438 235.81445312 C-174.54189453 236.35005859 -173.87480469 236.88566406 -173.1875 237.4375 C-172.48302734 238.00662109 -171.77855469 238.57574219 -171.05273438 239.16210938 C-166.04135448 243.20093037 -160.98883494 247.18545017 -155.91625977 251.14697266 C-150.75092473 255.1896625 -145.66757694 259.32947744 -140.5859375 263.4765625 C-136.30048382 266.96780083 -131.98170547 270.41068888 -127.625 273.8125 C-121.88489332 278.2945011 -116.22806754 282.87206557 -110.5859375 287.4765625 C-106.30048382 290.96780083 -101.98170547 294.41068888 -97.625 297.8125 C-91.88489332 302.2945011 -86.22806754 306.87206557 -80.5859375 311.4765625 C-76.30048382 314.96780083 -71.98170547 318.41068888 -67.625 321.8125 C-61.88489332 326.2945011 -56.22806754 330.87206557 -50.5859375 335.4765625 C-45.74005872 339.42436336 -40.84329857 343.30048898 -35.91625977 347.14624023 C-32.11252155 350.12300861 -28.35136848 353.14737221 -24.6105957 356.20288086 C-22.59111123 357.85164104 -20.56574794 359.49291608 -18.5390625 361.1328125 C-15.97273492 363.20947006 -13.42977405 365.31058564 -10.8984375 367.4296875 C-9.7454444 368.3705921 -8.59183181 369.31073826 -7.4375 370.25 C-6.43332031 371.08402344 -5.42914063 371.91804687 -4.39453125 372.77734375 C-1.77596629 374.60820174 -1.77596629 374.60820174 0.8671875 373.875 C3.93201908 371.96544761 6.62086936 369.76507866 9.3125 367.375 C13.84981608 363.440281 18.44432057 359.62168679 23.1875 355.9375 C28.30177678 351.95734256 33.35537412 347.91140892 38.375 343.8125 C43.89825006 339.30472351 49.46684817 334.86407061 55.0859375 330.4765625 C59.55936708 326.97473753 63.97367202 323.40438836 68.375 319.8125 C73.89839685 315.30490027 79.46684436 310.86407358 85.0859375 306.4765625 C89.55936708 302.97473753 93.97367202 299.40438836 98.375 295.8125 C103.89839685 291.30490027 109.46684436 286.86407358 115.0859375 282.4765625 C119.55936708 278.97473753 123.97367202 275.40438836 128.375 271.8125 C133.89839685 267.30490027 139.46684436 262.86407358 145.0859375 258.4765625 C150.24154718 254.44072325 155.31739223 250.31043648 160.38769531 246.16821289 C165.48814249 242.00964498 170.64578462 237.92993617 175.859375 233.9140625 C178.94465474 231.51852078 181.59159817 229.09590183 184.375 226.3125 C62.275 226.3125 -59.825 226.3125 -185.625 226.3125 Z M-213.625 255.3125 C-213.71655656 293.90410575 -213.78703925 332.49569514 -213.82926132 371.08738753 C-213.83426414 375.64354499 -213.83944143 380.19970224 -213.84472656 384.75585938 C-213.8457758 385.66290778 -213.84682505 386.56995619 -213.84790608 387.50449091 C-213.86531105 402.19106776 -213.89684925 416.87758197 -213.93361118 431.56412166 C-213.97101804 446.63400176 -213.99323531 461.70384905 -214.00135398 476.77377367 C-214.00684228 486.07265372 -214.02417626 495.37135673 -214.05666587 504.67018229 C-214.07781059 511.04684303 -214.08420014 517.42341226 -214.07900551 523.80010551 C-214.07644365 527.47910211 -214.0803692 531.15778937 -214.1018219 534.83673096 C-214.12492463 538.82783875 -214.11694596 542.81828872 -214.10601807 546.80944824 C-214.11766943 547.96899379 -214.1293208 549.12853934 -214.14132524 550.32322264 C-214.08012534 558.58301432 -212.5351013 563.88007283 -207.1875 570.1875 C-202.58489259 574.00429639 -198.71612854 574.5629929 -192.81639385 574.57256222 C-192.14104868 574.57636789 -191.4657035 574.58017356 -190.76989332 574.58409455 C-188.50249829 574.59441694 -186.23535331 574.59050303 -183.96794128 574.58665466 C-182.32765452 574.59110671 -180.6873699 574.59642065 -179.04708844 574.60252339 C-174.53598718 574.61671765 -170.02495476 574.61836641 -165.51383436 574.61792648 C-160.65004191 574.61957341 -155.78627794 574.63263754 -150.92250061 574.64411926 C-140.28623552 574.66697714 -129.64999038 574.67489058 -119.01370406 574.67994571 C-112.37369409 574.68320151 -105.73368993 574.68972325 -99.09368324 574.6969471 C-80.71264806 574.71651329 -62.33161828 574.73291764 -43.95057201 574.73582363 C-42.77415084 574.7360112 -41.59772966 574.73619877 -40.38565936 574.73639202 C-38.0007304 574.73675828 -35.61580144 574.73712198 -33.23087247 574.73748314 C-32.04697704 574.73766595 -30.8630816 574.73784876 -29.64331055 574.73803711 C-28.45797186 574.73821766 -27.27263317 574.73839821 -26.05137513 574.73858423 C-6.83853061 574.74212695 12.3742019 574.7691554 31.58700756 574.806535 C51.30818691 574.84459698 71.02931065 574.86398095 90.75052756 574.86428314 C101.82507723 574.86486815 112.89949325 574.87338842 123.97400856 574.90228081 C133.4027694 574.92676634 142.83134785 574.93409662 152.26013187 574.91903328 C157.07129926 574.91185307 161.88210627 574.91276971 166.69323349 574.93544388 C171.098291 574.95600555 175.50271043 574.95346 179.90776082 574.93256903 C181.50061468 574.92906876 183.09351431 574.93400696 184.68630812 574.94827347 C196.46564055 575.10882765 196.46564055 575.10882765 206.375 569.3125 C210.77754476 564.67824236 212.62635091 560.32682426 212.62109566 553.94958019 C212.62507775 552.8806727 212.62905985 551.8117652 212.63316262 550.71046656 C212.62442409 548.95804045 212.62442409 548.95804045 212.61550903 547.17021179 C212.61721788 545.92453975 212.61892673 544.67886771 212.62068737 543.39544803 C212.62341248 539.94058174 212.61716033 536.48594193 212.60713124 533.03110301 C212.59849589 529.3045031 212.60141696 525.5779102 212.60293579 521.8513031 C212.60398459 515.39561493 212.59770854 508.93996718 212.58646011 502.48428917 C212.57020737 493.15046353 212.56499734 483.81665744 212.56248413 474.48281918 C212.55810667 459.33936512 212.54479619 444.1959326 212.52587891 429.05249023 C212.50752142 414.34187935 212.49336427 399.63127432 212.48486328 384.9206543 C212.48433783 384.01392126 212.48381239 383.10718822 212.48327102 382.17297842 C212.48066095 377.62417397 212.47813353 373.07536948 212.47564721 368.52656496 C212.45491314 330.78852809 212.41968622 293.05051572 212.375 255.3125 C211.08815106 256.27474492 209.80169706 257.23751802 208.51541138 258.20051575 C207.44075717 259.00464763 207.44075717 259.00464763 206.34439278 259.8250246 C204.31016318 261.36147102 202.3243119 262.94074966 200.3671875 264.57421875 C199.6980835 265.12988525 199.02897949 265.68555176 198.33959961 266.25805664 C197.65003174 266.83289795 196.96046387 267.40773926 196.25 268 C190.43562773 272.81896494 184.57126213 277.55630113 178.61474609 282.19799805 C174.15516814 285.68033458 169.75815103 289.234578 165.375 292.8125 C159.85166343 297.32017214 154.28315403 301.76092767 148.6640625 306.1484375 C144.19063292 309.65026247 139.77632798 313.22061164 135.375 316.8125 C129.85160315 321.32009973 124.28315564 325.76092642 118.6640625 330.1484375 C114.19063292 333.65026247 109.77632798 337.22061164 105.375 340.8125 C99.85160315 345.32009973 94.28315564 349.76092642 88.6640625 354.1484375 C84.19063292 357.65026247 79.77632798 361.22061164 75.375 364.8125 C69.85160315 369.32009973 64.28315564 373.76092642 58.6640625 378.1484375 C54.19063025 381.65026455 49.77642446 385.22072679 45.375 388.8125 C39.80605947 393.35505553 34.21091647 397.85873121 28.53662109 402.26928711 C25.545087 404.59522838 22.58845549 406.95155355 19.671875 409.37109375 C19.05715332 409.87366699 18.44243164 410.37624023 17.80908203 410.89404297 C16.64486994 411.84709432 15.48881898 412.81024962 14.34326172 413.78564453 C9.58942122 417.64356341 5.08544102 419.08353291 -1.09375 419.46484375 C-10.13636326 418.5084135 -16.4710024 412.84347089 -23.25 407.1875 C-24.65806411 406.027686 -26.06693252 404.86884784 -27.4765625 403.7109375 C-28.17426758 403.13698242 -28.87197266 402.56302734 -29.59082031 401.97167969 C-32.56908595 399.54245582 -35.59337418 397.17455091 -38.625 394.8125 C-45.78662081 389.22076076 -52.82483166 383.4811745 -59.86816406 377.74169922 C-64.80225883 373.7277761 -69.77207195 369.75961524 -74.78125 365.83984375 C-81.80092062 360.34662511 -88.75672511 354.78539963 -95.66259766 349.1496582 C-99.94851636 345.65798318 -104.26779319 342.21470258 -108.625 338.8125 C-114.36510668 334.3304989 -120.02193246 329.75293443 -125.6640625 325.1484375 C-129.94951618 321.65719917 -134.26829453 318.21431112 -138.625 314.8125 C-144.36510668 310.3304989 -150.02193246 305.75293443 -155.6640625 301.1484375 C-159.94951618 297.65719917 -164.26829453 294.21431112 -168.625 290.8125 C-173.67346535 286.8705476 -178.66248378 282.86208928 -183.625 278.8125 C-188.75943353 274.62496019 -193.91594238 270.46945577 -199.125 266.375 C-199.93324219 265.73884766 -199.93324219 265.73884766 -200.7578125 265.08984375 C-203.75550191 262.74189982 -206.78206264 260.43633865 -209.83007812 258.15405273 C-210.54296997 257.62005356 -211.25586182 257.08605438 -211.99035645 256.53587341 C-212.52978882 256.13216019 -213.06922119 255.72844696 -213.625 255.3125 Z " fill="#000000" transform="translate(500.625,99.6875)"/>
</svg>
